<?xml version="1.0" standalone="no"?>
<!DOCTYPE svg PUBLIC "-//W3C//DTD SVG 1.1//EN" "http://www.w3.org/Graphics/SVG/1.1/DTD/svg11.dtd" >
<svg xmlns="http://www.w3.org/2000/svg">
<metadata>
<json>
<![CDATA[
{
	"fontFamily": "rscn-font",
	"majorVersion": 1,
	"minorVersion": 1,
	"version": "Version 1.1",
	"fontId": "rscn-font",
	"psName": "rscn-font",
	"subFamily": "Regular",
	"fullName": "rscn-font",
	"description": "Font generated by IcoMoon."
}
]]>
</json>
</metadata>
<defs>
<font id="rscn-font" horiz-adv-x="1024">
<font-face units-per-em="1024" ascent="960" descent="-64" />
<missing-glyph horiz-adv-x="1024" />
<glyph unicode="&#x20;" horiz-adv-x="512" d="" />
<glyph unicode="&#xe900;" glyph-name="angle-down" data-tags="angle-down" horiz-adv-x="896" d="M402.8 274.8c25-25 65.6-25 90.6 0l320 320c25 25 25 65.6 0 90.6s-65.6 25-90.6 0l-274.8-274.8-274.8 274.6c-25 25-65.6 25-90.6 0s-25-65.6 0-90.6l320-320z" />
<glyph unicode="&#xe901;" glyph-name="angle-left" data-tags="angle-left" horiz-adv-x="640" d="M82.8 493.2c-25-25-25-65.6 0-90.6l320-320c25-25 65.6-25 90.6 0s25 65.6 0 90.6l-274.8 274.8 274.6 274.8c25 25 25 65.6 0 90.6s-65.6 25-90.6 0l-320-320z" />
<glyph unicode="&#xe902;" glyph-name="angle-right" data-tags="angle-right" horiz-adv-x="640" d="M557.2 493.2c25-25 25-65.6 0-90.6l-320-320c-25-25-65.6-25-90.6 0s-25 65.6 0 90.6l274.8 274.8-274.6 274.8c-25 25-25 65.6 0 90.6s65.6 25 90.6 0l320-320z" />
<glyph unicode="&#xe903;" glyph-name="angle-up" data-tags="angle-up" horiz-adv-x="896" d="M402.8 685.2c25 25 65.6 25 90.6 0l320-320c25-25 25-65.6 0-90.6s-65.6-25-90.6 0l-274.8 274.8-274.8-274.6c-25-25-65.6-25-90.6 0s-25 65.6 0 90.6l320 320z" />
<glyph unicode="&#xe904;" glyph-name="arrow" data-tags="arrow" d="M350.293 33.707l-60.587 60.587 354.133 353.707-354.133 353.707 60.587 60.587 413.867-414.293-413.867-414.293z" />
<glyph unicode="&#xe905;" glyph-name="facebook-f" data-tags="facebook-f" horiz-adv-x="640" d="M160 361.4v-425.4h232v425.4h173l36 195.6h-209v69.2c0 103.4 40.6 143 145.4 143 32.6 0 58.8-0.8 74-2.4v177.4c-28.6 7.8-98.6 15.8-139 15.8-213.8 0-312.4-101-312.4-318.8v-84.2h-132v-195.6h132z" />
<glyph unicode="&#xe906;" glyph-name="instagram" data-tags="instagram" horiz-adv-x="896" d="M448.2 678c-127.2 0-229.8-102.6-229.8-229.8s102.6-229.8 229.8-229.8 229.8 102.6 229.8 229.8-102.6 229.8-229.8 229.8zM448.2 298.8c-82.2 0-149.4 67-149.4 149.4s67 149.4 149.4 149.4 149.4-67 149.4-149.4-67.2-149.4-149.4-149.4zM741 687.4c0-29.8-24-53.6-53.6-53.6-29.8 0-53.6 24-53.6 53.6s24 53.6 53.6 53.6 53.6-24 53.6-53.6zM893.2 633c-3.4 71.8-19.8 135.4-72.4 187.8-52.4 52.4-116 68.8-187.8 72.4-74 4.2-295.8 4.2-369.8 0-71.6-3.4-135.2-19.8-187.8-72.2s-68.8-116-72.4-187.8c-4.2-74-4.2-295.8 0-369.8 3.4-71.8 19.8-135.4 72.4-187.8s116-68.8 187.8-72.4c74-4.2 295.8-4.2 369.8 0 71.8 3.4 135.4 19.8 187.8 72.4 52.4 52.4 68.8 116 72.4 187.8 4.2 74 4.2 295.6 0 369.6zM797.6 184c-15.6-39.2-45.8-69.4-85.2-85.2-59-23.4-199-18-264.2-18s-205.4-5.2-264.2 18c-39.2 15.6-69.4 45.8-85.2 85.2-23.4 59-18 199-18 264.2s-5.2 205.4 18 264.2c15.6 39.2 45.8 69.4 85.2 85.2 59 23.4 199 18 264.2 18s205.4 5.2 264.2-18c39.2-15.6 69.4-45.8 85.2-85.2 23.4-59 18-199 18-264.2s5.4-205.4-18-264.2z" />
<glyph unicode="&#xe907;" glyph-name="linkedin-in" data-tags="linkedin-in" horiz-adv-x="896" d="M200.56 64h-185.76v598.2h185.76zM107.58 743.8c-59.4 0-107.58 49.2-107.58 108.6 0 59.415 48.165 107.58 107.58 107.58s107.58-48.165 107.58-107.58v0c0-59.4-48.2-108.6-107.58-108.6zM895.8 64h-185.36v291.2c0 69.4-1.4 158.4-96.58 158.4-96.58 0-111.38-75.4-111.38-153.4v-296.2h-185.56v598.2h178.16v-81.6h2.6c24.8 47 85.38 96.6 175.76 96.6 188 0 222.56-123.8 222.56-284.6v-328.6z" />
<glyph unicode="&#xe908;" glyph-name="linkedin" data-tags="linkedin" horiz-adv-x="896" d="M832 896h-768.2c-35.2 0-63.8-29-63.8-64.6v-766.8c0-35.6 28.6-64.6 63.8-64.6h768.2c35.2 0 64 29 64 64.6v766.8c0 35.6-28.8 64.6-64 64.6zM270.8 128h-132.8v427.6h133v-427.6zM204.4 614c-42.6 0-77 34.6-77 77s34.4 77 77 77c42.4 0 77-34.6 77-77 0-42.6-34.4-77-77-77zM768.6 128h-132.8v208c0 49.6-1 113.4-69 113.4-69.2 0-79.8-54-79.8-109.8v-211.6h-132.8v427.6h127.4v-58.4h1.8c17.8 33.6 61.2 69 125.8 69 134.4 0 159.4-88.6 159.4-203.8v-234.4z" />
<glyph unicode="&#xe909;" glyph-name="twitter" data-tags="twitter" d="M918.74 656.568c0.65-9.096 0.65-18.194 0.65-27.29 0-277.44-211.166-597.116-597.116-597.116-118.904 0-229.36 34.438-322.274 94.212 16.894-1.948 33.136-2.598 50.68-2.598 98.11 0 188.426 33.136 260.548 89.664-92.264 1.95-169.584 62.376-196.224 145.544 12.996-1.948 25.99-3.248 39.636-3.248 18.842 0 37.686 2.6 55.228 7.146-96.162 19.494-168.286 103.96-168.286 205.97v2.598c27.938-15.594 60.428-25.34 94.862-26.638-56.528 37.686-93.562 102.010-93.562 174.782 0 38.984 10.394 74.72 28.588 105.908 103.31-127.35 258.6-210.516 432.73-219.614-3.248 15.594-5.198 31.836-5.198 48.080 0 115.656 93.564 209.868 209.868 209.868 60.426 0 115.004-25.34 153.34-66.274 47.43 9.096 92.912 26.64 133.198 50.68-15.596-48.732-48.732-89.666-92.264-115.654 42.234 4.546 83.168 16.244 120.852 32.486-28.584-41.582-64.322-78.616-105.256-108.506z" />
<glyph unicode="&#xe90a;" glyph-name="youtube" data-tags="youtube" horiz-adv-x="1152" d="M1099.31 711.834c-12.562 47.3-49.574 84.552-96.568 97.194-85.18 22.972-426.742 22.972-426.742 22.972s-341.56 0-426.742-22.972c-46.994-12.644-84.006-49.894-96.568-97.194-22.824-85.734-22.824-264.61-22.824-264.61s0-178.876 22.824-264.61c12.562-47.3 49.574-83 96.568-95.642 85.182-22.972 426.742-22.972 426.742-22.972s341.56 0 426.742 22.972c46.994 12.642 84.006 48.342 96.568 95.642 22.824 85.734 22.824 264.61 22.824 264.61s0 178.876-22.824 264.61zM464.29 284.818v324.812l285.478-162.41-285.478-162.402z" />
<glyph unicode="&#xe90b;" glyph-name="ara" data-tags="ara" d="M444.16 896c209.92 0 380.16-170.24 380.16-380.16 0-81.92-26.027-157.867-69.973-219.733l144.213-144.213 4.267-4.693c20.48-25.173 19.2-62.293-4.267-85.76s-60.587-24.747-85.76-4.267l-4.693 4.267-144.213 144.213c-61.867-43.947-137.813-69.973-219.733-69.973-209.92 0-380.16 170.24-380.16 380.16s170.24 380.16 380.16 380.16zM444.16 768c-139.093 0-252.16-113.067-252.16-252.16s113.067-252.16 252.16-252.16c139.093 0 252.16 113.067 252.16 252.16s-113.067 252.16-252.16 252.16z" />
<glyph unicode="&#xe90c;" d="M448 541.867c0 38.4 29.867 72.533 72.533 72.533s72.533-29.867 72.533-72.533-29.867-72.533-72.533-72.533-72.533 29.867-72.533 72.533z" />
<glyph unicode="&#xe90d;" d="M307.2 469.333c21.333 0 34.133-17.067 34.133-34.133v0c0-21.333-17.067-34.133-34.133-34.133s-34.133 17.067-34.133 34.133v0c0 21.333 17.067 34.133 34.133 34.133z" />
<glyph unicode="&#xe90e;" d="M733.867 469.333c21.333 0 34.133-17.067 34.133-34.133v0c0-21.333-17.067-34.133-34.133-34.133s-34.133 17.067-34.133 34.133v0c0 21.333 17.067 34.133 34.133 34.133z" />
<glyph unicode="&#xe90f;" d="M307.2 328.533c21.333 0 34.133-17.067 34.133-34.133v0c0-21.333-17.067-34.133-34.133-34.133s-34.133 17.067-34.133 34.133v0c0 21.333 17.067 34.133 34.133 34.133z" />
<glyph unicode="&#xe910;" d="M733.867 328.533c21.333 0 34.133-17.067 34.133-34.133v0c0-21.333-17.067-34.133-34.133-34.133s-34.133 17.067-34.133 34.133v0c0 21.333 17.067 34.133 34.133 34.133z" />
<glyph unicode="&#xe911;" d="M874.667 648.533h-132.267l-204.8 136.533c-12.8 8.533-25.6 8.533-38.4 0l-204.8-136.533h-132.267c-21.333 0-34.133-17.067-34.133-34.133v-426.667c0-29.867 12.8-55.467 29.867-76.8 21.333-21.333 46.933-29.867 76.8-29.867h567.467c29.867 0 55.467 12.8 76.8 29.867 21.333 21.333 29.867 46.933 29.867 76.8v426.667c0 21.333-17.067 34.133-34.133 34.133zM554.667 149.333h-72.533v140.8c0 8.533 0 17.067 8.533 25.6s17.067 8.533 25.6 8.533 17.067 0 25.6-8.533 8.533-17.067 8.533-25.6v-140.8h4.267zM840.533 183.467c0-8.533 0-17.067-8.533-25.6s-17.067-8.533-25.6-8.533h-179.2v140.8c0 29.867-12.8 55.467-29.867 76.8-21.333 21.333-46.933 29.867-76.8 29.867s-55.467-12.8-76.8-29.867c-21.333-21.333-29.867-46.933-29.867-76.8v-140.8h-179.2c-8.533 0-17.067 0-25.6 8.533s-8.533 17.067-8.533 25.6v392.533h106.667c8.533 0 12.8 0 21.333 4.267l192 128 192-128c4.267 0 12.8-4.267 21.333-4.267h106.667v-392.533z" />
<glyph unicode="&#xe912;" glyph-name="ev" data-tags="ev" d="M471.467 881.493c25.173 20.48 62.293 19.2 85.76-4.267l384-384c18.347-18.347 23.893-45.653 14.080-69.547s-33.28-39.68-59.307-39.68h-21.333v-234.667c0-47.36-16.64-88.32-49.92-115.627-31.147-26.027-68.693-33.707-99.413-33.707h-426.667c-30.72 0-68.693 7.68-99.413 33.707-33.28 27.733-49.92 68.267-49.92 115.627v234.667h-21.333c-26.027 0-49.067 15.787-59.307 39.68-9.813 23.893-4.267 51.627 14.080 69.547l384 384 4.693 4.267zM261.12 490.667c10.24-11.52 16.213-26.027 16.213-42.667v-298.667c0-8.96 1.28-13.653 2.133-15.36s1.28-2.133 1.28-2.133c0.853-0.853 5.973-3.84 17.92-3.84h64v192c0 58.88 47.787 106.667 106.667 106.667h85.333c58.88 0 106.667-47.787 106.667-106.667v-192h64c11.947 0 16.64 2.987 17.92 3.84 0 0 0.853 0.427 1.28 2.133 0.853 1.707 2.133 6.4 2.133 15.36v305.067c1.707 13.653 7.68 26.453 16.213 35.84l-250.88 250.88-250.88-250.88zM490.667 128h42.667v170.667h-42.667v-170.667z" />
<glyph unicode="&#xe913;" d="M938.24 705.707c-1.707 36.267-8.107 67.413-14.080 89.6-2.987 11.093-5.973 20.053-8.107 26.453-1.28 2.987-2.133 5.547-2.56 7.253 0 0.853-0.427 1.707-0.853 2.133v0s0 0.853 0 0.853v0c-2.987 7.253-8.96 13.227-16.213 16.213v0s0 0 0 0h-0.427s-1.28 0.853-2.133 1.28c-1.707 0.853-4.267 1.707-7.253 2.56-6.4 2.133-15.36 5.12-26.453 8.107-22.187 5.973-53.333 12.373-89.6 14.080-72.533 2.987-166.827-13.227-246.187-92.587-32.427-31.147-64.853-78.080-96.853-129.28-58.027 31.573-116.053 34.133-170.667 16.64-60.16-19.2-114.773-62.293-162.133-110.507-6.4-6.827-9.387-15.787-8.533-25.173 1.28-9.387 6.4-17.493 14.507-22.187l202.667-122.027c4.693-2.987 9.813-3.84 14.933-3.84l131.84-131.84c0-5.12 0.853-10.24 3.84-14.933l122.027-202.667c4.693-8.107 12.8-13.227 22.187-14.507s18.347 1.707 25.173 8.533c48.213 47.36 91.307 101.547 110.507 162.133 17.493 54.613 14.933 112.213-16.64 170.667 51.2 32 97.707 64.427 129.28 96.853 79.36 79.36 95.573 173.653 92.587 246.187zM310.613 455.68l-145.067 87.467c35.413 32 72.107 56.32 108.8 67.84 37.973 11.947 77.653 11.093 120.32-10.667-14.507-24.32-29.013-49.493-43.947-75.093-13.653-23.467-26.88-46.933-40.107-69.547zM363.093 425.387c14.080 23.893 27.733 47.36 40.96 70.827 5.12 8.96 10.24 17.92 15.36 26.88l167.68-167.68c-6.4-3.84-13.227-7.68-19.627-11.52l-5.12-2.987c-24.32-14.080-48.64-28.16-72.96-42.24l-126.72 126.72zM674.987 210.347c-11.52-36.693-35.84-73.387-67.84-108.8l-87.467 145.067c23.893 14.080 48.213 28.587 72.96 42.667l4.693 2.56c17.92 10.24 35.413 20.48 52.907 30.72 0.427 0 0.853 0.427 1.707 0.853 4.267 2.56 8.107 4.693 12.373 7.253 22.187-42.24 23.040-82.347 11.093-120.32zM802.56 501.333c-30.293-31.147-79.787-65.28-140.373-101.973-6.827-4.267-14.080-8.533-20.907-12.8l-190.293 190.293c4.267 6.827 8.107 13.653 12.373 20.907 36.693 60.587 70.827 110.507 101.973 140.8v0c64 64.427 139.52 78.080 201.387 75.52 30.72-1.28 57.6-6.827 76.8-11.947 6.827-1.707 12.8-3.84 17.067-5.12 1.707-4.693 3.413-10.24 5.12-17.067 5.12-19.2 10.667-46.080 11.947-76.8 2.56-61.44-11.093-137.387-75.093-201.387v0z" />
<glyph unicode="&#xe914;" d="M727.893 724.907c-16.213 0-32-6.4-43.093-17.92-11.52-11.52-17.92-26.88-17.92-43.093s6.4-32 17.92-43.093c11.52-11.52 26.88-17.92 43.093-17.92s31.573 6.4 43.093 17.92c11.52 11.52 17.92 26.88 17.92 43.093s-6.4 32-17.92 43.093c-11.52 11.52-26.88 17.92-43.093 17.92z" />
<glyph unicode="&#xe915;" d="M293.547 297.387c-23.040 9.387-48.213 11.52-72.107 5.973-23.893-5.12-46.080-17.92-62.72-35.84-13.227-13.653-23.040-35.413-31.147-55.467-8.107-21.333-15.787-45.653-21.76-68.267s-11.093-44.373-14.507-60.16c-1.707-8.107-2.987-14.507-3.84-18.773-0.427-2.133-0.853-4.267-0.853-5.12v-1.28s0 0 0 0v0c-1.707-10.24 1.28-20.48 8.533-27.733s17.493-10.24 27.307-8.533h0.427s1.28 0 1.28 0c1.28 0 2.987 0.427 5.12 1.28 4.693 0.853 11.093 2.133 18.773 3.84 15.787 3.413 37.12 8.533 60.16 14.507 22.613 5.973 46.933 13.653 68.267 21.76 20.053 7.68 41.813 17.92 55.467 30.72 11.947 11.093 21.333 24.747 28.16 39.68s10.24 31.147 10.667 47.787v0c0 24.747-6.827 49.067-20.48 69.547s-33.28 36.693-56.32 45.653zM303.787 159.147c-3.413-7.68-8.107-14.507-14.080-20.053v0c-3.84-4.267-15.36-10.667-34.987-18.347-18.347-7.253-40.533-13.653-62.293-19.627-12.8-3.413-24.747-6.4-35.84-8.96 2.56 11.093 5.547 23.467 8.96 35.84 5.973 21.76 12.373 43.52 19.627 62.293 7.68 19.627 14.080 31.147 17.92 34.987v0c8.533 9.387 19.627 15.787 31.573 18.347s24.747 1.707 36.267-2.987c11.52-4.693 21.333-12.8 28.16-23.040s10.24-22.613 10.24-34.987c0-8.107-2.133-16.213-5.12-23.893z" />
<glyph unicode="&#xe916;" d="M368.213 656.213c0 35.413 14.080 69.12 39.253 94.293s58.88 39.253 94.293 39.253 69.12-14.080 94.293-39.253c25.173-25.173 39.253-58.88 39.253-94.293s-14.080-69.12-39.253-94.293c-25.173-25.173-58.88-39.253-94.293-39.253s-69.12 14.080-94.293 39.253c-25.173 25.173-39.253 58.88-39.253 94.293z" />
<glyph unicode="&#xe917;" d="M421.547 469.333c-21.333 0-41.387-8.533-56.747-23.467-14.933-14.933-23.467-35.413-23.467-56.747v-133.12c0-42.24 17.067-83.2 46.933-113.067s70.827-46.933 113.067-46.933 83.2 17.067 113.067 46.933c29.867 29.867 46.933 70.827 46.933 113.067v133.12c0 21.333-8.533 41.387-23.467 56.747-14.933 14.933-35.413 23.467-56.747 23.467h-160z" />
<glyph unicode="&#xe918;" d="M290.987 417.707c-2.133-9.387-2.987-18.773-2.987-28.16v-133.12c0-28.587 5.547-56.747 16.64-83.2s27.307-49.92 47.787-69.973l-5.12-1.28c-40.96-11.093-84.48-5.12-121.173 16.213s-63.573 56.32-74.667 97.28l-20.907 77.227c-2.56 10.24-3.413 20.907-2.133 31.147s4.693 20.48 10.24 29.44c5.12 8.96 12.373 17.067 20.48 23.467 8.533 6.4 17.92 11.093 28.16 13.653l103.68 27.733z" />
<glyph unicode="&#xe919;" d="M649.813 102.827c20.48 20.053 36.693 43.52 47.787 69.973s17.067 54.613 17.067 83.2v133.12c0 9.813-0.853 19.2-2.987 28.16l103.68-27.733c10.24-2.56 19.627-7.253 28.16-13.653s15.36-14.507 20.48-23.467c5.12-8.96 8.533-19.2 10.24-29.44 1.28-10.24 0.853-20.907-2.133-31.147l-20.907-77.227c-5.547-20.907-15.36-40.107-28.587-57.173s-29.867-31.147-48.64-41.387c-18.773-10.24-39.253-17.067-61.013-19.2-21.333-2.133-43.093 0-63.573 5.973z" />
<glyph unicode="&#xe91a;" d="M128 576c0 28.16 11.093 55.467 31.147 75.52s46.933 31.147 75.52 31.147 55.467-11.093 75.52-31.147c20.053-20.053 31.147-46.933 31.147-75.52s-11.093-55.467-31.147-75.52c-20.053-20.053-46.933-31.147-75.52-31.147s-55.467 11.093-75.52 31.147c-20.053 20.053-31.147 46.933-31.147 75.52z" />
<glyph unicode="&#xe91b;" d="M661.333 576c0 28.16 11.093 55.467 31.147 75.52s46.933 31.147 75.52 31.147 55.467-11.093 75.52-31.147c20.053-20.053 31.147-46.933 31.147-75.52s-11.093-55.467-31.147-75.52-46.933-31.147-75.52-31.147-55.467 11.093-75.52 31.147c-20.053 20.053-31.147 46.933-31.147 75.52z" />
<glyph unicode="&#xe91c;" d="M730.453 21.333l-117.333 625.493-527.787-47.787v-425.813c0-52.907 0-79.787 10.24-99.84 8.96-17.92 23.467-32.427 41.387-41.387 20.48-10.24 46.933-10.24 99.84-10.24h493.227zM535.893 304.213c0-102.4-101.547-174.080-145.493-200.533-5.973-3.84-13.227-5.547-20.053-5.547s-14.080 2.133-20.053 5.547c-44.373 26.453-145.493 98.56-145.493 200.533s80.213 167.253 165.973 167.253 165.973-66.987 165.973-167.253z" />
<glyph unicode="&#xe91d;" d="M95.573 823.040c-10.24-20.48-10.24-46.933-10.24-99.84v-29.013l852.907 77.653c-0.853 23.040-3.413 38.4-9.813 51.627-8.96 17.92-23.467 32.427-41.387 41.387-20.48 10.24-46.933 10.24-99.84 10.24h-549.973c-52.907 0-79.787 0-99.84-10.24-17.92-8.96-32.427-23.467-41.387-41.387zM938.667 676.267l-230.827-20.907 118.613-633.6c28.16 0.427 45.653 2.56 60.16 10.24 17.92 8.96 32.427 23.467 41.387 41.387 10.24 20.48 10.24 46.933 10.24 99.84v503.040z" />
<glyph unicode="&#xe91e;" d="M369.92 258.56c26.027 0 47.36 21.333 47.36 47.36s-21.333 47.36-47.36 47.36-47.36-21.333-47.36-47.36 21.333-47.36 47.36-47.36z" />
<glyph unicode="&#xe91f;" glyph-name="harita2" data-tags="harita2" d="M730.453 21.333l-117.333 625.493-527.787-47.787v-425.813c0-52.907 0-79.787 10.24-99.84 8.96-17.92 23.467-32.427 41.387-41.387 20.48-10.24 46.933-10.24 99.84-10.24h493.227zM535.893 304.213c0-102.4-101.547-174.080-145.493-200.533-5.973-3.84-13.227-5.547-20.053-5.547s-14.080 2.133-20.053 5.547c-44.373 26.453-145.493 98.56-145.493 200.533s80.213 167.253 165.973 167.253 165.973-66.987 165.973-167.253zM95.573 823.040c-10.24-20.48-10.24-46.933-10.24-99.84v-29.013l852.907 77.653c-0.853 23.040-3.413 38.4-9.813 51.627-8.96 17.92-23.467 32.427-41.387 41.387-20.48 10.24-46.933 10.24-99.84 10.24h-549.973c-52.907 0-79.787 0-99.84-10.24-17.92-8.96-32.427-23.467-41.387-41.387zM938.667 676.267l-230.827-20.907 118.613-633.6c28.16 0.427 45.653 2.56 60.16 10.24 17.92 8.96 32.427 23.467 41.387 41.387 10.24 20.48 10.24 46.933 10.24 99.84v503.040zM369.92 258.56c26.027 0 47.36 21.333 47.36 47.36s-21.333 47.36-47.36 47.36-47.36-21.333-47.36-47.36 21.333-47.36 47.36-47.36z" />
<glyph unicode="&#xe920;" glyph-name="kalp" data-tags="kalp" d="M512 731.307c91.733 101.973 250.453 106.24 347.733 9.387l8.533-8.96c82.347-90.88 82.347-229.973 0-321.28l-8.533-8.96-302.507-302.507c-23.467-23.467-60.587-24.747-85.76-4.267l-4.693 4.267-302.507 302.507c-93.44 93.44-93.44 245.333 0 339.2l9.387 8.96c97.707 87.893 249.6 80.64 338.347-17.92zM769.28 649.813c-42.667 42.667-110.507 43.52-154.027 3.84l-8.533-8.533-46.933-52.907c-11.947-13.653-29.44-21.333-47.787-21.333-15.787 0-31.147 5.973-43.093 16.64l-4.693 4.693-46.933 52.907c-40.107 45.227-107.947 49.92-153.6 12.8l-8.96-8.107c-43.52-43.52-43.52-114.347 0-157.867l257.28-257.28 257.28 257.28 7.68 8.533c33.28 40.96 33.28 100.267 0 140.8l-7.68 8.533z" />
<glyph unicode="&#xe921;" d="M424.96 832.427c-27.733 27.307-64.853 42.24-104.107 42.24s-76.373-15.36-104.107-42.24c-27.733-27.307-43.093-64-43.093-102.4s15.36-75.093 43.093-102.4c27.733-27.307 64.853-42.24 104.107-42.24s76.373 15.36 104.107 42.24c27.733 27.307 43.093 64 43.093 102.4s-15.36 75.093-43.093 102.4zM383.147 668.587c-16.64-16.213-38.827-25.6-62.293-25.6s-46.080 8.96-62.293 25.6-26.027 38.4-26.027 61.44 9.387 45.227 26.027 61.44c16.64 16.213 38.827 25.6 62.293 25.6s46.080-8.96 62.293-25.6 26.027-38.4 26.027-61.44-9.387-45.227-26.027-61.44z" />
<glyph unicode="&#xe922;" d="M673.707 759.040c-15.787 0-30.72-5.973-41.813-17.067-11.093-10.667-17.067-25.6-17.067-40.96s6.4-30.293 17.067-40.96c11.093-10.667 26.027-17.067 41.813-17.067-31.573 0-62.72-4.267-93.013-13.227-13.653 17.067-21.76 37.547-24.32 59.307-2.133 21.76 1.707 43.52 11.52 62.72 9.813 19.627 24.747 35.84 43.52 47.36s40.107 17.493 62.293 17.493 43.52-5.973 62.293-17.493 33.707-27.733 43.52-47.36 13.653-41.387 11.093-62.72c-2.133-21.76-10.667-42.24-24.32-59.307-30.293 8.96-61.44 13.227-93.013 13.227 15.787 0 30.72 5.973 41.813 17.067 11.093 10.667 17.067 25.6 17.067 40.96s-6.4 30.293-17.067 40.96c-11.093 10.667-26.027 17.067-41.813 17.067h0.427z" />
<glyph unicode="&#xe923;" d="M424.107 527.36h-250.453c-23.467 0-45.653-8.96-62.293-25.6-16.64-16.213-26.027-38.4-26.027-61.44v-6.4c0-2.56 0-5.12 0-8.107 3.413-28.16 14.080-55.040 30.72-77.653 32.427-43.52 93.44-81.493 203.947-81.493 11.947 0 23.467 0.427 34.56 1.28-3.413 18.773-5.12 37.547-5.12 56.747v1.28c-9.813-0.853-19.627-1.28-29.44-1.28-95.573 0-137.387 32-156.587 57.6-10.667 14.507-17.493 31.573-20.053 49.493v8.533c0 7.68 2.987 14.933 8.533 20.48s12.8 8.533 20.907 8.533h212.053c10.667 20.907 23.893 40.107 38.827 58.027z" />
<glyph unicode="&#xe924;" d="M919.040 422.827c-21.76 52.907-61.013 97.28-110.933 126.293s-108.373 40.96-165.973 34.133c-57.6-6.827-111.36-32-153.173-72.107-41.813-39.68-68.693-92.16-77.227-148.907s2.133-114.347 30.293-164.267l-32-103.68c-1.28-4.267-1.28-8.533 0-12.8s3.413-8.107 6.4-11.093c2.987-2.987 6.827-5.12 11.093-6.4 4.267-0.853 8.533-0.853 12.8 0l105.387 31.573c39.253-21.333 83.627-32.427 128.427-32.427 58.027 0 114.773 18.773 160.853 53.333s79.36 83.2 94.72 138.667c15.36 55.040 11.52 113.92-10.24 166.827v0.853zM694.613 246.187c-5.547-5.547-12.8-8.533-20.907-8.533h-117.76c-7.68 0-15.36 2.987-20.907 8.533s-8.533 12.8-8.533 20.48 2.987 14.933 8.533 20.48c5.547 5.547 12.8 8.533 20.907 8.533h117.76c7.68 0 15.36-2.987 20.907-8.533s8.533-12.8 8.533-20.48-2.987-14.933-8.533-20.48zM812.373 361.813c-5.547-5.547-12.8-8.533-20.907-8.533h-235.52c-7.68 0-15.36 2.987-20.907 8.533s-8.533 12.8-8.533 20.48 2.987 14.933 8.533 20.48c5.547 5.547 12.8 8.533 20.907 8.533h235.52c7.68 0 15.36-2.987 20.907-8.533s8.533-12.8 8.533-20.48-2.987-14.933-8.533-20.48z" />
<glyph unicode="&#xe925;" glyph-name="menu" data-tags="menu" d="M85.333 704h853.333v-170.667h-853.333v170.667zM85.333 362.667h640v-170.667h-640v170.667z" />
<glyph unicode="&#xe926;" glyph-name="mouse" data-tags="mouse" d="M512 21.333c-164.693 0-298.667 133.973-298.667 298.667v256c0 164.693 133.973 298.667 298.667 298.667s298.667-133.973 298.667-298.667v-256c0-164.693-133.973-298.667-298.667-298.667zM512 746.667c-94.293 0-170.667-76.373-170.667-170.667v-256c0-94.293 76.373-170.667 170.667-170.667s170.667 76.373 170.667 170.667v256c0 94.293-76.373 170.667-170.667 170.667zM597.333 576c0-47.128-38.205-85.333-85.333-85.333s-85.333 38.205-85.333 85.333c0 47.128 38.205 85.333 85.333 85.333s85.333-38.205 85.333-85.333z" />
<glyph unicode="&#xe927;" glyph-name="x" data-tags="x" d="M757.333 832h130.987l-285.867-325.12 336.213-442.88h-263.253l-206.080 268.373-235.947-268.373h-130.987l305.92 348.16-322.987 419.84h270.080l186.453-245.333 215.467 245.333zM711.253 142.080h72.533l-468.053 616.107h-77.653l473.173-616.107z" />
<glyph unicode="&#xe928;" d="M837.973 678.827c11.947-17.92 11.947-43.093 11.947-93.013v-453.547h17.92c7.253 0 13.653-2.987 18.773-7.68s7.68-11.947 7.68-18.773-2.987-13.653-7.68-18.773c-5.12-5.12-11.947-7.68-18.773-7.68h-711.253c-7.253 0-13.653 2.987-18.773 7.68-5.12 5.12-7.68 11.947-7.68 18.773s2.987 13.653 7.68 18.773c5.12 5.12 11.947 7.68 18.773 7.68h17.92v453.547c0 49.92 0 75.093 11.947 93.013 5.12 7.68 11.947 14.507 19.627 19.627 15.787 10.667 90.027 11.947 128.853 11.947 0-10.24 0-21.333 0-32.427v-47.787h-89.173c-7.253 0-13.653-2.987-18.773-7.68s-7.68-11.947-7.68-18.773 2.987-13.653 7.68-18.773c5.12-5.12 11.947-7.68 18.773-7.68h89.173v-53.333h-89.173c-7.253 0-13.653-2.987-18.773-7.68-5.12-5.12-7.68-11.947-7.68-18.773s2.987-13.653 7.68-18.773c5.12-5.12 11.947-7.68 18.773-7.68h89.173v-53.333h-89.173c-7.253 0-13.653-2.987-18.773-7.68-5.12-5.12-7.68-11.947-7.68-18.773s2.987-13.653 7.68-18.773c5.12-5.12 11.947-7.68 18.773-7.68h89.173v-231.253h355.413v231.253h88.747c7.253 0 13.653 2.987 18.773 7.68 5.12 5.12 7.68 11.947 7.68 18.773s-2.987 13.653-7.68 18.773c-5.12 5.12-11.947 7.68-18.773 7.68h-88.747v53.333h88.747c7.253 0 13.653 2.987 18.773 7.68 5.12 5.12 7.68 11.947 7.68 18.773s-2.987 13.653-7.68 18.773c-5.12 5.12-11.947 7.68-18.773 7.68h-88.747v53.333h88.747c7.253 0 13.653 2.987 18.773 7.68 5.12 5.12 7.68 11.947 7.68 18.773s-2.987 13.653-7.68 18.773c-5.12 5.12-11.947 7.68-18.773 7.68h-88.747v47.787c0 11.093 0 21.76 0 32.427 38.4 0 112.64-1.28 128.427-11.947 7.68-5.12 14.507-11.947 19.627-19.627z" />
<glyph unicode="&#xe929;" d="M477.013 817.067c-67.413 0-100.693 0-121.6-20.907s-20.907-54.613-20.907-121.6v-542.293h-177.92c-6.827 0-13.653-2.56-18.773-7.68-4.693-5.12-7.68-11.947-7.68-18.773s2.56-13.653 7.68-18.773c5.12-4.693 11.52-7.68 18.773-7.68h711.253c6.827 0 13.653 2.56 18.773 7.68 4.693 5.12 7.68 11.947 7.68 18.773s-2.56 14.080-7.68 18.773c-5.12 4.693-11.52 7.68-18.773 7.68h-177.92v542.293c0 67.413 0 100.693-20.907 121.6-20.48 20.907-54.187 20.907-121.173 20.907h-71.253zM512 736.853c7.253 0 13.653-2.987 18.773-7.68 5.12-5.12 7.68-11.947 7.68-18.773v-44.373h44.373c7.253 0 13.653-2.987 18.773-7.68 5.12-5.12 7.68-11.947 7.68-18.773s-2.987-13.653-7.68-18.773c-5.12-5.12-11.947-7.68-18.773-7.68h-44.373v-44.373c0-7.253-2.987-13.653-7.68-18.773-5.12-5.12-11.947-7.68-18.773-7.68s-13.653 2.987-18.773 7.68c-5.12 5.12-7.68 11.947-7.68 18.773v44.373h-44.373c-7.253 0-13.653 2.987-18.773 7.68-5.12 5.12-7.68 11.947-7.68 18.773s2.987 13.653 7.68 18.773c5.12 5.12 11.947 7.68 18.773 7.68h44.373v44.373c0 7.253 2.987 13.653 7.68 18.773 5.12 5.12 11.947 7.68 18.773 7.68zM414.293 461.227c0 7.253 2.987 13.653 7.68 18.773 5.12 5.12 11.947 7.68 18.773 7.68h142.080c7.253 0 13.653-2.987 18.773-7.68 5.12-5.12 7.68-11.947 7.68-18.773s-2.987-13.653-7.68-18.773c-5.12-5.12-11.947-7.68-18.773-7.68h-142.080c-7.253 0-13.653 2.987-18.773 7.68-5.12 5.12-7.68 11.947-7.68 18.773zM414.293 354.56c0 7.253 2.987 13.653 7.68 18.773 5.12 5.12 11.947 7.68 18.773 7.68h142.080c7.253 0 13.653-2.987 18.773-7.68 5.12-5.12 7.68-11.947 7.68-18.773s-2.987-13.653-7.68-18.773c-5.12-5.12-11.947-7.68-18.773-7.68h-142.080c-7.253 0-13.653 2.987-18.773 7.68-5.12 5.12-7.68 11.947-7.68 18.773zM512 238.933c7.253 0 13.653-2.987 18.773-7.68 5.12-5.12 7.68-11.947 7.68-18.773v-80.213h-53.333v80.213c0 7.253 2.987 13.653 7.68 18.773 5.12 5.12 11.947 7.68 18.773 7.68z" />
</font>
</defs>
</svg>
