<svg width="736" height="92" viewBox="0 0 736 92" fill="none" xmlns="http://www.w3.org/2000/svg">
<path fill-rule="evenodd" clip-rule="evenodd" d="M602.088 67.9385C602.523 67.9385 602.922 67.9747 603.285 68.0473C604.229 68.1925 604.701 69.0998 604.701 70.7692H579.115V67.9385C579.623 67.9385 580.131 67.9022 580.639 67.8296C583.905 67.5392 585.538 65.6884 585.538 62.2769V2.83077H579.115V0H599.366V32.1183C599.874 31.1022 600.491 30.086 601.216 29.0698C604.701 24.5696 609.382 22.3195 615.261 22.3195C617.149 22.3195 618.891 22.6099 620.488 23.1905C626.948 25.368 630.177 30.9933 630.177 40.0663V67.9385H633.77C634.206 67.9385 634.641 67.9747 635.077 68.0473C636.02 68.1925 636.492 69.0998 636.492 70.7692H612.104V67.9385C613.338 67.9385 614.318 67.757 615.044 67.3941C615.915 66.886 616.35 65.1803 616.35 62.2769V38.2154C616.35 37.4895 616.314 36.8363 616.241 36.2556C615.733 30.8118 613.265 28.0899 608.838 28.0899C607.676 28.0899 606.479 28.4166 605.245 29.0698C601.325 31.1748 599.366 35.4209 599.366 41.8083V67.9385H602.088ZM656.308 43.5503C656.816 31.5014 659.973 25.368 665.78 25.1503C670.425 25.2955 672.784 29.2513 672.857 37.0177C672.857 40.4292 671.841 42.5341 669.808 43.3325C668.357 43.8406 666.179 44.0221 663.276 43.8769L656.308 43.5503ZM684.398 62.9302C685.123 61.8414 685.704 60.7164 686.14 59.555L683.527 58.684C681.494 63.1116 678.301 66.1238 673.945 67.7207C672.203 68.3739 670.425 68.7006 668.611 68.7006C662.804 68.7006 659.066 64.9988 657.396 57.5952C656.743 54.5467 656.38 50.9175 656.308 46.7077L666.324 47.0343C678.01 47.3972 684.797 45.5463 686.684 41.4816C687.119 40.4655 687.337 39.3404 687.337 38.1065C687.337 31.9369 684.18 27.4367 677.865 24.6059C674.308 23.0816 670.28 22.3195 665.78 22.3195C657.578 22.3195 651.19 25.114 646.618 30.7029C643.134 35.058 641.392 40.4655 641.392 46.9254C641.392 57.4501 645.347 64.7811 653.259 68.9183C657.033 70.8781 661.316 71.858 666.106 71.858C674.599 71.858 680.696 68.882 684.398 62.9302ZM721.524 68.0473C721.161 67.9747 720.762 67.9384 720.327 67.9384H712.27V44.4213C712.778 36.8 714.629 32.1546 717.823 30.4852C718.331 30.2674 718.802 30.1586 719.238 30.1586C720.036 30.1586 720.907 30.9933 721.851 32.6627C723.157 34.9854 724.573 36.4371 726.097 37.0177C726.823 37.2355 727.621 37.3444 728.492 37.3444C731.396 37.3444 733.464 35.9653 734.698 33.2071C735.134 32.2635 735.352 31.2836 735.352 30.2674C735.352 26.6382 733.573 24.3519 730.017 23.4083C729.146 23.1905 728.238 23.0816 727.295 23.0816C722.794 23.0816 718.839 24.8599 715.427 28.4165C713.903 30.1586 712.742 32.0457 711.943 34.0781L711.181 23.9526H692.128V26.7834H698.443V62.2769C698.443 65.4706 697.172 67.2852 694.632 67.7207C693.906 67.8658 693.071 67.9384 692.128 67.9384V70.7692H722.94C722.94 69.0998 722.468 68.1925 721.524 68.0473ZM539.267 24.4971V27.3278H546.779V54.5468C546.779 65.0714 551.134 70.8419 559.845 71.858C560.716 71.9306 561.587 71.9669 562.458 71.9669C568.047 71.9669 571.893 70.1523 573.998 66.5231C575.015 64.7085 575.813 62.3132 576.394 59.3373L573.454 58.9018C572.002 64.7811 569.861 68.0111 567.03 68.5918C566.595 68.6643 566.159 68.7006 565.724 68.7006C563.038 68.7006 561.405 66.8134 560.824 63.0391C560.679 62.1681 560.607 61.2608 560.607 60.3172V27.3278H574.978V24.4971H560.607V11.8675L546.779 14.1539V24.4971H539.267ZM513.463 25.1503C507.656 25.368 504.499 31.5014 503.991 43.5503L510.959 43.8769C513.862 44.0221 516.04 43.8406 517.491 43.3325C519.524 42.5341 520.54 40.4292 520.54 37.0177C520.467 29.2513 518.108 25.2955 513.463 25.1503ZM533.823 59.555C533.387 60.7164 532.807 61.8414 532.081 62.9302C528.379 68.882 522.282 71.858 513.79 71.858C508.999 71.858 504.717 70.8781 500.942 68.9183C493.031 64.7811 489.075 57.4501 489.075 46.9254C489.075 40.4655 490.817 35.058 494.301 30.7029C498.874 25.114 505.261 22.3195 513.463 22.3195C517.963 22.3195 521.992 23.0816 525.548 24.6059C531.863 27.4367 535.02 31.9369 535.02 38.1065C535.02 39.3404 534.803 40.4655 534.367 41.4816C532.48 45.5463 525.693 47.3972 514.007 47.0343L503.991 46.7077C504.063 50.9175 504.426 54.5467 505.079 57.5952C506.749 64.9988 510.487 68.7006 516.294 68.7006C518.108 68.7006 519.887 68.3739 521.629 67.7207C525.984 66.1238 529.177 63.1116 531.21 58.684L533.823 59.555ZM449.989 51.1716C449.481 49.2118 449.227 45.7278 449.227 40.7195C449.227 33.5337 450.025 28.9972 451.622 27.1101C452.783 25.8035 454.489 25.1503 456.739 25.1503C460.368 25.1503 462.655 26.8197 463.598 30.1586C464.106 32.1909 464.36 35.6024 464.36 40.3929C464.36 47.7239 463.489 52.3692 461.747 54.329C460.513 55.5629 458.808 56.1799 456.63 56.1799C453.074 56.1799 450.86 54.5104 449.989 51.1716ZM470.022 25.5858C466.538 23.4083 462.255 22.3195 457.174 22.3195C448.755 22.3195 442.585 25.0051 438.666 30.3763C436.488 33.3523 435.399 36.6911 435.399 40.3929C435.399 45.6189 437.94 50.1917 443.021 54.1112C443.964 54.8371 444.944 55.4903 445.96 56.071H445.851C441.569 55.9984 438.593 57.8856 436.924 61.7325C436.343 63.1842 436.053 64.6359 436.053 66.0876C436.125 69.5716 437.468 72.4024 440.081 74.5799C438.194 76.83 437.25 79.0438 437.25 81.2213C437.25 85.1408 439.827 88.0805 444.98 90.0402C448.464 91.3467 452.674 92 457.61 92C469.514 92 477.208 89.2055 480.692 83.6166C481.78 81.8745 482.325 80.0599 482.325 78.1728C482.325 70.8418 478.333 66.6682 470.348 65.6521C469.405 65.5069 468.425 65.4343 467.409 65.4343L444.872 64.9988C442.984 64.9262 441.859 64.0915 441.496 62.4947C441.424 62.2769 441.388 62.0592 441.388 61.8414C441.388 60.172 442.295 59.2284 444.109 59.0106C444.4 58.9381 444.69 58.9018 444.98 58.9018L456.63 59.0106C464.614 59.0106 470.639 56.2887 474.703 50.845C477.026 47.6513 478.188 44.0947 478.188 40.1751C478.115 34.8765 476.119 30.5215 472.199 27.1101C473.506 25.0777 475.03 24.0252 476.772 23.9527C477.716 23.9527 478.877 24.5696 480.256 25.8035C481.345 26.6745 482.361 27.1101 483.305 27.1101C485.482 27.1101 486.825 26.0939 487.333 24.0615C487.406 23.6986 487.442 23.3357 487.442 22.9728C487.442 20.3598 486.172 18.5089 483.631 17.4201C482.47 16.912 481.2 16.658 479.821 16.658C476.046 16.658 473.107 18.8355 471.002 23.1905C470.639 23.9889 470.312 24.7874 470.022 25.5858ZM466.973 88.1893C464.143 88.77 461.021 89.0603 457.61 89.0603C448.755 89.0603 443.42 87.1006 441.605 83.1811C441.242 82.3826 441.061 81.5842 441.061 80.7858C441.061 79.2615 441.605 77.7373 442.694 76.213C444.146 76.7937 445.67 77.084 447.267 77.084L469.26 77.3018C473.47 77.3018 475.937 77.955 476.663 79.2615C476.954 79.7696 477.099 80.3866 477.099 81.1124C477.099 84.5238 473.724 86.8828 466.973 88.1893ZM392.175 47.1432C392.175 53.9661 392.611 58.9381 393.482 62.0592C394.788 66.7045 397.692 69.0272 402.192 69.0272C404.732 69.0272 406.801 68.2651 408.398 66.7408C411.156 63.9826 412.535 57.3049 412.535 46.7077C412.535 40.1026 412.1 35.2757 411.229 32.2272C409.922 27.5093 406.946 25.1503 402.301 25.1503C399.543 25.1503 397.401 25.985 395.877 27.6544C393.409 30.4852 392.175 36.9814 392.175 47.1432ZM402.845 22.3195C409.087 22.3195 414.422 24.0252 418.85 27.4367C424.584 32.0095 427.451 38.3605 427.451 46.4899C427.451 52.587 425.637 57.9582 422.007 62.6035C417.144 68.7732 410.43 71.858 401.865 71.858C395.623 71.858 390.252 69.9708 385.752 66.1964C380.09 61.4059 377.259 54.9096 377.259 46.7077C377.259 40.901 378.929 35.8201 382.268 31.4651C387.058 25.368 393.917 22.3195 402.845 22.3195ZM336.322 24.4971V27.3278H343.835V54.5468C343.835 65.0714 348.19 70.8419 356.9 71.858C357.771 71.9306 358.642 71.9669 359.513 71.9669C365.102 71.9669 368.949 70.1523 371.054 66.5231C372.07 64.7085 372.868 62.3132 373.449 59.3373L370.509 58.9018C369.058 64.7811 366.917 68.0111 364.086 68.5918C363.65 68.6643 363.215 68.7006 362.779 68.7006C360.094 68.7006 358.461 66.8134 357.88 63.0391C357.735 62.1681 357.662 61.2608 357.662 60.3172V27.3278H372.034V24.4971H357.662V11.8675L343.835 14.1539V24.4971H336.322ZM302.619 70.7693V28.1248H308.89V36.4064C309.943 33.7524 311.504 31.6608 313.572 30.1316C316.137 28.2363 319.091 27.2887 322.436 27.2887C323.829 27.2887 324.777 27.4001 325.279 27.6231V34.0616C325 33.9501 324.61 33.8944 324.108 33.8944C323.606 33.8386 322.993 33.8107 322.268 33.8107C318.032 33.8107 314.799 35.0929 312.569 37.6571C310.395 40.1656 309.308 43.789 309.308 48.5273V70.7693H302.619ZM262.11 68.7625C265.232 70.6578 268.827 71.6054 272.896 71.6054C277.245 71.6054 281.035 70.4905 284.268 68.2608C287.557 65.9753 289.899 62.8814 291.292 58.9793H284.937C283.99 61.2091 282.485 62.9372 280.422 64.1636C278.359 65.3342 275.962 65.9195 273.231 65.9195C268.883 65.9195 265.399 64.4144 262.779 61.4042C260.607 58.8073 259.355 55.4905 259.023 51.4538H292.296C292.407 50.8407 292.463 50.2832 292.463 49.7815C292.519 49.2798 292.546 48.7502 292.546 48.1928C292.546 43.9562 291.738 40.2771 290.121 37.1554C288.561 34.0337 286.303 31.6088 283.349 29.8808C280.45 28.1527 277.022 27.2887 273.064 27.2887C268.939 27.2887 265.287 28.2084 262.11 30.048C258.933 31.8876 256.452 34.4797 254.668 37.8243C252.94 41.1133 252.076 44.9318 252.076 49.2798C252.076 53.6279 252.968 57.4742 254.752 60.8189C256.535 64.1636 258.988 66.8114 262.11 68.7625ZM259.147 45.8515H285.871C285.49 42.2078 284.398 39.3091 282.596 37.1554C280.366 34.3682 277.189 32.9746 273.064 32.9746C268.827 32.9746 265.399 34.4518 262.779 37.4063C260.821 39.6199 259.61 42.435 259.147 45.8515ZM221.686 88.7467C216.614 88.7467 212.377 87.5482 208.977 85.1512C205.632 82.8099 203.597 79.6882 202.873 75.7861H209.227C209.841 78.0159 211.206 79.7718 213.325 81.0539C215.499 82.3918 218.425 83.0607 222.104 83.0607C226.452 83.0607 229.741 81.8622 231.971 79.4652C234.201 77.124 235.316 73.6678 235.316 69.0968V62.3462C234.25 64.5788 232.633 66.4387 230.466 67.9261C227.623 69.8214 224.251 70.7691 220.348 70.7691C216.614 70.7691 213.325 69.8772 210.482 68.0934C207.639 66.2538 205.437 63.7174 203.876 60.4843C202.315 57.2511 201.535 53.4883 201.535 49.196C201.535 44.848 202.343 41.0295 203.96 37.7406C205.576 34.4516 207.834 31.9153 210.733 30.1315C213.687 28.2919 217.115 27.3721 221.017 27.3721C225.031 27.3721 228.376 28.3476 231.051 30.2987C233.161 31.8054 234.722 33.8107 235.734 36.3147V28.1247H242.005V69.0968C242.005 75.1729 240.193 79.9669 236.57 83.4788C232.947 86.9907 227.985 88.7467 221.686 88.7467ZM222.021 64.9996C226.202 64.9996 229.518 63.5502 231.971 60.6515C234.424 57.7528 235.65 53.8228 235.65 48.8616C235.65 44.0118 234.424 40.1933 231.971 37.4061C229.518 34.5631 226.202 33.1417 222.021 33.1417C217.784 33.1417 214.44 34.5631 211.987 37.4061C209.59 40.2491 208.391 44.1512 208.391 49.1124C208.391 53.9622 209.618 57.8364 212.07 60.7351C214.523 63.5781 217.84 64.9996 222.021 64.9996ZM154.656 28.1248V70.7693H161.346V47.6911C161.346 44.7924 161.931 42.256 163.102 40.082C164.328 37.908 166 36.2078 168.119 34.9814C170.293 33.755 172.773 33.1418 175.56 33.1418C178.738 33.1418 181.135 33.9501 182.751 35.5667C184.368 37.1833 185.176 39.6082 185.176 42.8413V70.7693H191.866V41.0854C191.866 36.9603 190.5 33.6435 187.768 31.135C185.093 28.5708 181.525 27.2887 177.066 27.2887C173.275 27.2887 169.875 28.2084 166.864 30.048C164.333 31.6241 162.354 33.6913 160.928 36.2496V28.1248H154.656ZM123.553 71.6054C119.372 71.6054 115.693 70.6299 112.515 68.6788C109.338 66.7278 106.857 64.0799 105.073 60.7353C103.345 57.3349 102.481 53.5164 102.481 49.2798C102.481 44.9875 103.373 41.1969 105.157 37.908C106.941 34.619 109.394 32.0269 112.515 30.1316C115.693 28.2363 119.372 27.2887 123.553 27.2887C127.789 27.2887 131.468 28.2363 134.59 30.1316C137.767 32.0269 140.22 34.619 141.948 37.908C143.732 41.1969 144.624 44.9875 144.624 49.2798C144.624 53.5164 143.732 57.3349 141.948 60.7353C140.22 64.0799 137.767 66.7278 134.59 68.6788C131.468 70.6299 127.789 71.6054 123.553 71.6054ZM123.553 65.9195C126.451 65.9195 128.96 65.2227 131.078 63.8291C133.196 62.3797 134.841 60.4008 136.012 57.8923C137.182 55.3838 137.767 52.4851 137.767 49.1962C137.767 44.2907 136.457 40.3607 133.838 37.4063C131.273 34.4518 127.845 32.9746 123.553 32.9746C119.316 32.9746 115.888 34.4518 113.268 37.4063C110.648 40.3607 109.338 44.2907 109.338 49.1962C109.338 52.4851 109.923 55.3838 111.094 57.8923C112.264 60.4008 113.909 62.3797 116.027 63.8291C118.201 65.2227 120.71 65.9195 123.553 65.9195ZM74.4694 28.1248V70.7693H81.1587V48.5273C81.1587 43.789 82.2458 40.1656 84.4198 37.6571C86.6496 35.0929 89.8827 33.8107 94.1193 33.8107C94.844 33.8107 95.4572 33.8386 95.9589 33.8944C96.4606 33.8944 96.8508 33.9501 97.1295 34.0616V27.6231C96.6278 27.4001 95.6801 27.2887 94.2865 27.2887C90.9419 27.2887 87.9874 28.2363 85.4232 30.1316C83.3543 31.6608 81.7935 33.7524 80.7406 36.4064V28.1248H74.4694ZM60.0075 71.5216C55.2692 71.5216 51.813 70.4624 49.639 68.3442C47.5207 66.1701 46.4616 63.0484 46.4616 58.9791V33.8105H37.6818V28.1246H46.4616V18.1742L53.1509 15.6657V28.1246H65.8606V33.8105H53.1509V58.8955C53.1509 61.2925 53.7641 63.0484 54.9905 64.1633C56.2169 65.2782 58.2236 65.8357 61.0109 65.8357C62.1258 65.8357 63.0734 65.7799 63.8538 65.6684C64.69 65.5012 65.3589 65.3061 65.8606 65.0831V70.769C65.3032 70.992 64.4949 71.1592 63.4358 71.2707C62.4324 71.438 61.2896 71.5216 60.0075 71.5216ZM5.35146 68.0099C8.47314 70.4069 12.654 71.6054 17.8939 71.6054C22.9109 71.6054 26.8409 70.5742 29.6839 68.5116C32.5268 66.3933 33.9483 63.4668 33.9483 59.7319C33.9483 56.6659 32.9449 54.046 30.9381 51.8719C28.9313 49.6979 25.949 48.0813 21.9912 47.0222L15.3018 45.1826C12.7376 44.4579 10.898 43.566 9.78314 42.5069C8.72399 41.4477 8.19442 40.1935 8.19442 38.7441C8.19442 36.8488 8.94697 35.3995 10.4521 34.3961C11.9572 33.3369 14.0755 32.8074 16.8069 32.8074C19.6499 32.8074 21.9354 33.4205 23.6635 34.6469C25.3916 35.8733 26.4507 37.6292 26.8409 39.9148H33.2794C32.8892 35.9569 31.2447 32.8631 28.346 30.6333C25.4473 28.4035 21.6846 27.2887 17.0578 27.2887C12.3753 27.2887 8.66825 28.3757 5.93678 30.5497C3.2053 32.668 1.83956 35.5667 1.83956 39.2458C1.83956 42.1445 2.81509 44.653 4.76614 46.7713C6.7172 48.8339 9.64378 50.3668 13.5459 51.3702L20.4024 53.1262C23.2454 53.8508 25.1407 54.7706 26.0884 55.8855C27.036 56.9447 27.5098 58.1989 27.5098 59.6483C27.5098 61.7108 26.6737 63.2995 25.0014 64.4144C23.329 65.5293 21.0156 66.0867 18.0612 66.0867C14.7165 66.0867 12.0408 65.3621 10.034 63.9127C8.02719 62.4634 6.82869 60.3729 6.43848 57.6415H0C0.445955 62.101 2.22977 65.5572 5.35146 68.0099Z" fill="url(#paint0_linear_56_4930)"/>
<defs>
<linearGradient id="paint0_linear_56_4930" x1="7.80159" y1="58.8626" x2="411.284" y2="-317.815" gradientUnits="userSpaceOnUse">
<stop stop-color="white"/>
<stop offset="1" stop-color="#A6E5FF"/>
</linearGradient>
</defs>
</svg>
