<?xml version="1.0" encoding="UTF-8"?>
<svg id="Layer_2" data-name="Layer 2" xmlns="http://www.w3.org/2000/svg" viewBox="0 0 971.64 234.77">
  <defs>
    <style>
      .cls-1 {
        fill: #05679c;
      }

      .cls-2 {
        fill: #03afc8;
      }
    </style>
  </defs>
  <g id="_1080_x_1080_px_Logo_Set_1" data-name="1080 x 1080 px Logo Set 1">
    <g id="Text">
      <g>
        <path class="cls-2" d="M322.5,44.99c16.63.52,33.67-.68,50.26-.02,29.52,1.18,55.3,12.1,53.85,46.07-.66,15.43-8.06,28.96-20.96,37.33-3.53,2.29-7.32,3.5-10.65,5.49-.42.25-.87-.16-.66.89l58.82,68.95h-26.29l-53.1-62.96h-29.93v62.18c0,.06-.73.78-.78.78h-19.78c-.06,0-.78-.73-.78-.78V44.99ZM343.84,63.21v59.06c0,.57,1.27.75,1.8.81,8.99,1.05,27.32.16,36.21-1.84,13.45-3.04,21.51-13.41,22.4-27.04,2.46-37.53-34.89-30.27-60.41-30.99Z"/>
        <g>
          <path class="cls-2" d="M883.15,44.99l68.71,129.57V44.99h19c.06,0,.78.73.78.78v157.15c0,.06-.73.78-.78.78h-24.99l-75.74-142.06v141.28c0,.06-.73.78-.78.78h-19V44.99h32.8Z"/>
          <path class="cls-2" d="M608.29,53.32v24.46c-3.11.02-5.62-3.08-8.17-4.58-18.98-11.24-53.02-19.02-73-7.08-18.31,10.94-16.09,34.78,4.36,41.87,27.51,9.53,77.12,4.12,82.46,42.98,4.56,33.14-24.27,53.32-54.31,55.37-23.16,1.58-46.43-3.06-67.43-12.51v-26.54c.79-.17,1.14.29,1.72.62,3.35,1.89,6.73,5.11,10.42,7.27,20.38,11.97,57.36,19.92,78.04,5.61,13.63-9.43,14.59-31.42-1-39.43-25.47-13.08-72.01-3.16-85.27-37.05-8.56-21.88.67-42.88,20.62-53.78,26.67-14.58,64.56-8.05,91.55,2.8Z"/>
          <path class="cls-2" d="M795.69,55.92v24.98c-2.52.27-4.33-2.48-6.29-3.86-20.21-14.23-43.89-22.15-68.55-13.98-37.36,12.38-42.73,68.69-26.42,99.02,18.4,34.22,63.57,31.75,92.06,11.87,3.05-2.13,5.8-5.41,9.2-6.68v24.98c-4.73,1.27-9.07,4.17-13.54,5.98-39.05,15.79-90.87,10.69-109.93-31.64-13.03-28.94-11.06-74.6,10-99.47,27.66-32.66,78.45-29.49,113.47-11.2Z"/>
        </g>
        <g>
          <path class="cls-2" d="M185.77,8.75c26.82-27.17,68.11,15.38,37.3,40.15-25.93,20.86-61.06-16.08-37.3-40.15Z"/>
          <path class="cls-1" d="M202.64,180.42c11.91-1.41,24.39,5.52,28.85,16.69,10.3,25.78-19.24,47.85-41.68,32.3-20.82-14.43-11.7-46.08,12.83-48.98Z"/>
          <ellipse class="cls-2" cx="27.37" cy="207.41" rx="27.37" ry="27.36"/>
          <ellipse class="cls-1" cx="27.37" cy="27.53" rx="27.36" ry="27.35"/>
          <path class="cls-1" d="M141.68,55.58c19.05,18.29,40.28,37.61,58.3,56.72,16.46,17.44,21.78,40.32,13.67,63.25l-10.36-.47c1.11-3.9,2.92-7.72,3.59-11.76,5.63-34.24-21.19-50.73-42.38-71.48-16.84-16.49-34.4-35.77-52.03-51.02-14.57-12.6-33.22-16.27-51.81-11.43l-.29-9.4c13.76-4.38,29.54-2.65,42.64,3.23,13.9,6.24,27.56,21.7,38.67,32.37Z"/>
          <path class="cls-1" d="M27.86,60.09c-5.02,13.98-4.16,28.97,3.04,41.97,6.08,10.98,16.55,18.56,25.37,27.2,18.14,17.79,36.22,35.77,54.71,53.28,7.52,7.13,12.59,13.34,22.58,17.75,12.59,5.56,26.43,5.63,39.54,1.84-.52,3.4-.33,6.61-.22,9.92-21.37,6.81-44.3.18-60.69-14.34-12.66-11.22-24.93-24.85-37.2-36.71-14.18-13.7-31.65-28.34-44.54-42.9-11.83-13.37-17.84-31.53-15.03-49.4.17-1.1,2-8.79,2.28-9.16,1.09-1.46,8.02,1.52,10.16.53Z"/>
          <rect class="cls-2" x="31.78" y="72.85" width="90.26" height="10.07" transform="translate(-32.55 76.78) rotate(-44.78)"/>
          <rect class="cls-2" x="112.32" y="152.14" width="88.76" height="9.98" transform="translate(-65.21 156.81) rotate(-44.99)"/>
          <path class="cls-2" d="M30.46,175.08l-10.37.48c-5.46-17.12-3.99-37.17,6.53-51.97l6.89,6.56c-7.66,13.88-9.04,30.16-3.05,44.93Z"/>
          <path class="cls-2" d="M214.2,59.05c4.9,14.37,4.07,30.16-1.97,44.05-.75,1.72-2.86,6.27-4.02,7.43-1.39,1.39-1.08.07-1.85-.66-1.34-1.26-5.05-4.28-5.14-5.86-.07-1.23,3.24-7.49,3.9-9.58,3.52-11.08,3.01-23.41-.78-34.35,3.41.31,6.58-.29,9.87-1.03Z"/>
          <path class="cls-2" d="M60.2,214.04l.46-9.82c14.9,4.55,30.32,3.25,44-4.15,1.32.03,5.56,5.45,7,6.49-14.58,10.43-34.4,12.73-51.46,7.48Z"/>
          <path class="cls-2" d="M173.62,20.02c-.62,3.25-1.16,6.57-1.05,9.88-14.76-4.81-29.91-2.74-43.39,4.6-.67-1.2-6.53-5.48-6.61-5.92-.12-.72.07-1.05.55-1.54.8-.84,6.05-3.36,7.46-3.99,13.62-6.12,28.66-7.03,43.04-3.03Z"/>
        </g>
      </g>
    </g>
  </g>
</svg>