<svg width="736" height="92" viewBox="0 0 736 92" fill="none" xmlns="http://www.w3.org/2000/svg">
<path d="M479.82 16.6582C481.199 16.6582 482.47 16.912 483.631 17.4199C486.171 18.5087 487.442 20.3597 487.442 22.9727C487.442 23.3356 487.406 23.6986 487.333 24.0615C486.825 26.0939 485.482 27.1103 483.305 27.1104C482.361 27.1104 481.345 26.6747 480.256 25.8037C478.877 24.57 477.716 23.9533 476.772 23.9531C475.03 24.0257 473.506 25.078 472.199 27.1104C476.119 30.5217 478.115 34.8764 478.188 40.1748C478.188 44.0943 477.026 47.651 474.703 50.8447C470.638 56.2885 464.614 59.0107 456.63 59.0107L444.98 58.9014C444.69 58.9014 444.4 58.9382 444.109 59.0107C442.295 59.2285 441.388 60.1724 441.388 61.8418C441.388 62.0594 441.424 62.2775 441.496 62.4951C441.859 64.0916 442.984 64.9263 444.871 64.999L467.409 65.4346C468.425 65.4346 469.405 65.5072 470.349 65.6523C478.333 66.6686 482.325 70.8419 482.325 78.1729C482.325 80.06 481.78 81.8743 480.691 83.6162C477.207 89.2051 469.514 91.9999 457.61 92C452.675 92 448.464 91.3465 444.98 90.04C439.827 88.0803 437.25 85.141 437.25 81.2217C437.25 79.0442 438.194 76.8301 440.081 74.5801C437.468 72.4026 436.125 69.5718 436.053 66.0879C436.053 64.6362 436.343 63.1841 436.924 61.7324C438.593 57.8856 441.569 55.9987 445.852 56.0713H445.96C444.944 55.4906 443.964 54.8371 443.021 54.1113C437.94 50.1918 435.399 45.6186 435.399 40.3926C435.399 36.6909 436.489 33.3518 438.666 30.376C442.586 25.005 448.755 22.3193 457.175 22.3193C462.255 22.3194 466.538 23.4085 470.021 25.5859C470.312 24.7875 470.639 23.9889 471.002 23.1904C473.107 18.8356 476.046 16.6583 479.82 16.6582ZM442.694 76.2129C441.606 77.7372 441.061 79.2619 441.061 80.7861C441.061 81.5844 441.243 82.3824 441.605 83.1807C443.42 87.1002 448.755 89.0605 457.61 89.0605C461.022 89.0605 464.143 88.7701 466.974 88.1895C473.724 86.8829 477.099 84.5237 477.099 81.1123C477.099 80.3865 476.953 79.7698 476.663 79.2617C475.937 77.9552 473.47 77.3018 469.26 77.3018L447.267 77.084C445.67 77.084 444.146 76.7935 442.694 76.2129ZM221.018 27.3721C225.031 27.3721 228.376 28.3478 231.052 30.2988C233.162 31.8064 234.721 33.8143 235.733 36.3203V28.125H242.005V69.0967C242.005 75.1727 240.194 79.9666 236.57 83.4785C232.947 86.9904 227.986 88.747 221.687 88.7471C216.614 88.7471 212.377 87.5483 208.977 85.1514C205.632 82.8101 203.598 79.6882 202.873 75.7861H209.228C209.841 78.0157 211.206 79.7716 213.324 81.0537C215.498 82.3916 218.425 83.0605 222.104 83.0605C226.452 83.0605 229.741 81.8618 231.971 79.4648C234.2 77.1236 235.315 73.6677 235.315 69.0967V62.3408C234.25 64.5753 232.635 66.4374 230.466 67.9258C227.623 69.8211 224.251 70.7695 220.349 70.7695C216.614 70.7695 213.324 69.8776 210.481 68.0938C207.639 66.2542 205.437 63.7175 203.876 60.4844C202.315 57.2513 201.535 53.4885 201.535 49.1963C201.535 44.8482 202.343 41.0292 203.96 37.7402C205.576 34.4516 207.834 31.9156 210.732 30.1318C213.687 28.2923 217.115 27.3721 221.018 27.3721ZM357.662 24.4971H372.033V27.3281H357.662V60.3174C357.662 61.2609 357.735 62.1681 357.88 63.0391C358.461 66.8134 360.094 68.7002 362.779 68.7002C363.215 68.7002 363.65 68.6644 364.086 68.5918C366.917 68.011 369.058 64.7805 370.51 58.9014L373.449 59.3369C372.869 62.3129 372.07 64.7088 371.054 66.5234C368.949 70.1524 365.102 71.9668 359.513 71.9668C358.642 71.9668 357.771 71.9309 356.9 71.8584C348.19 70.8422 343.835 65.0715 343.835 54.5469V27.3281H336.322V24.4971H343.835V14.1543L357.662 11.8672V24.4971ZM560.606 24.4971H574.979V27.3281H560.606V60.3174C560.606 61.2609 560.679 62.1681 560.824 63.0391C561.405 66.8133 563.038 68.7001 565.724 68.7002C566.159 68.7002 566.595 68.6644 567.03 68.5918C569.861 68.0111 572.002 64.7807 573.454 58.9014L576.394 59.3369C575.813 62.3129 575.014 64.7088 573.998 66.5234C571.893 70.1523 568.047 71.9667 562.458 71.9668C561.587 71.9668 560.716 71.931 559.845 71.8584C551.135 70.8422 546.779 65.0715 546.779 54.5469V27.3281H539.267V24.4971H546.779V14.1543L560.606 11.8672V24.4971ZM402.845 22.3193C409.087 22.3193 414.422 24.0252 418.85 27.4365C424.584 32.0093 427.451 38.3608 427.451 46.4902C427.451 52.5871 425.636 57.9582 422.007 62.6035C417.144 68.773 410.43 71.8584 401.865 71.8584C395.623 71.8584 390.252 69.9706 385.752 66.1963C380.09 61.4058 377.26 54.9098 377.26 46.708C377.26 40.9013 378.929 35.8199 382.268 31.4648C387.058 25.368 393.917 22.3194 402.845 22.3193ZM513.463 22.3193C517.963 22.3193 521.991 23.0813 525.548 24.6055C531.863 27.4362 535.02 31.9368 535.021 38.1064C535.021 39.3403 534.803 40.4653 534.367 41.4814C532.48 45.5461 525.693 47.3971 514.007 47.0342L503.991 46.708C504.064 50.9177 504.426 54.5473 505.079 57.5957C506.749 64.999 510.487 68.7002 516.294 68.7002C518.108 68.7002 519.887 68.3739 521.629 67.7207C525.984 66.1238 529.178 63.1111 531.21 58.6836L533.822 59.5547C533.387 60.7159 532.807 61.8411 532.081 62.9297C528.379 68.8814 522.282 71.8583 513.79 71.8584C509 71.8584 504.717 70.8777 500.942 68.918C493.031 64.7807 489.075 57.4502 489.075 46.9258C489.075 40.4659 490.817 35.0581 494.301 30.7031C498.874 25.1142 505.261 22.3193 513.463 22.3193ZM665.78 22.3193C670.28 22.3194 674.309 23.0813 677.865 24.6055C684.18 27.4362 687.337 31.9368 687.337 38.1064C687.337 39.3404 687.119 40.4653 686.684 41.4814C684.796 45.5461 678.01 47.3971 666.324 47.0342L656.308 46.708C656.38 50.9177 656.743 54.5473 657.396 57.5957C659.066 64.9988 662.804 68.7001 668.61 68.7002C670.425 68.7002 672.203 68.3739 673.945 67.7207C678.3 66.1239 681.494 63.1112 683.526 58.6836L686.14 59.5547C685.704 60.7159 685.123 61.841 684.397 62.9297C680.696 68.8816 674.599 71.8584 666.106 71.8584C661.316 71.8584 657.033 70.8777 653.259 68.918C645.348 64.7807 641.392 57.4501 641.392 46.9258C641.392 40.4658 643.134 35.0582 646.618 30.7031C651.191 25.1143 657.578 22.3193 665.78 22.3193ZM17.0576 27.2891C21.6844 27.2891 25.447 28.404 28.3457 30.6338C31.2444 32.8636 32.8891 35.9572 33.2793 39.915H26.8408C26.4506 37.6295 25.3912 35.8729 23.6631 34.6465C21.9351 33.4203 19.6493 32.8076 16.8066 32.8076C14.0753 32.8077 11.9572 33.3374 10.4521 34.3965C8.94714 35.3999 8.19434 36.8489 8.19434 38.7441C8.19434 40.1935 8.72406 41.4477 9.7832 42.5068C10.8981 43.566 12.7376 44.4579 15.3018 45.1826L21.9912 47.0225C25.949 48.0816 28.9317 49.6981 30.9385 51.8721C32.945 54.0459 33.9481 56.6658 33.9482 59.7314C33.9482 63.4663 32.5266 66.3934 29.6836 68.5117C26.8406 70.5741 22.9104 71.6055 17.8936 71.6055C12.6538 71.6054 8.47317 70.4067 5.35156 68.0098C2.22992 65.557 0.445977 62.1011 0 57.6416H6.43848C6.82871 60.373 8.02741 62.4638 10.0342 63.9131C12.0409 65.3623 14.717 66.0869 18.0615 66.0869C21.0158 66.0869 23.3287 65.5289 25.001 64.4141C26.6733 63.2992 27.5097 61.7109 27.5098 59.6484C27.5098 58.1991 27.0355 56.9449 26.0879 55.8857C25.1402 54.7709 23.2452 53.8506 20.4023 53.126L13.5459 51.3701C9.644 50.3668 6.71765 48.8339 4.7666 46.7715C2.81561 44.6533 1.8399 42.1447 1.83984 39.2461C1.83984 35.5671 3.20519 32.6681 5.93652 30.5498C8.66797 28.3758 12.3752 27.2891 17.0576 27.2891ZM123.553 27.2891C127.789 27.2891 131.468 28.2366 134.59 30.1318C137.767 32.0271 140.22 34.6193 141.948 37.9082C143.732 41.1971 144.624 44.988 144.624 49.2803C144.624 53.5167 143.732 57.3351 141.948 60.7354C140.22 64.08 137.767 66.7277 134.59 68.6787C131.468 70.6297 127.789 71.6055 123.553 71.6055C119.372 71.6055 115.693 70.6297 112.516 68.6787C109.338 66.7277 106.857 64.08 105.073 60.7354C103.345 57.3351 102.482 53.5167 102.481 49.2803C102.481 44.988 103.373 41.1971 105.157 37.9082C106.941 34.6193 109.394 32.0271 112.516 30.1318C115.693 28.2366 119.372 27.2891 123.553 27.2891ZM273.063 27.2891C277.021 27.2891 280.45 28.1528 283.349 29.8809C286.303 31.6089 288.56 34.0337 290.121 37.1553C291.738 40.2769 292.547 43.956 292.547 48.1924C292.547 48.7497 292.519 49.2796 292.463 49.7812C292.463 50.2829 292.407 50.8409 292.296 51.4541H259.022C259.355 55.4907 260.607 58.8074 262.779 61.4043C265.399 64.4142 268.883 65.9198 273.23 65.9199C275.962 65.9199 278.359 65.3337 280.422 64.1631C282.484 62.9367 283.99 61.2092 284.938 58.9795H291.292C289.898 62.8814 287.557 65.9753 284.269 68.2607C281.035 70.4905 277.245 71.6055 272.896 71.6055C268.827 71.6055 265.232 70.6578 262.11 68.7627C258.989 66.8117 256.536 64.1638 254.752 60.8193C252.968 57.4748 252.076 53.6281 252.076 49.2803C252.076 44.9322 252.94 41.1131 254.668 37.8242C256.452 34.4796 258.933 31.8874 262.11 30.0479C265.288 28.2085 268.939 27.2891 273.063 27.2891ZM53.1514 28.125H65.8604V33.8105H53.1514V58.8955C53.1514 61.2923 53.764 63.0482 54.9902 64.1631C56.2166 65.278 58.2236 65.8359 61.0107 65.8359C62.1255 65.8359 63.0731 65.7794 63.8535 65.668C64.6896 65.5008 65.3587 65.3059 65.8604 65.083V70.7686C65.3029 70.9915 64.4946 71.159 63.4355 71.2705C62.4323 71.4377 61.2897 71.5215 60.0078 71.5215C55.2695 71.5215 51.8127 70.462 49.6387 68.3438C47.5207 66.1698 46.462 63.0484 46.4619 58.9795V33.8105H37.6816V28.125H46.4619V18.1738L53.1514 15.666V28.125ZM94.2861 27.2891C95.6797 27.2891 96.6282 27.4001 97.1299 27.623V34.0615C96.8512 33.95 96.4606 33.8945 95.959 33.8945C95.4573 33.8388 94.8438 33.8105 94.1191 33.8105C89.8826 33.8106 86.6497 35.093 84.4199 37.6572C82.2459 40.1657 81.1592 43.7891 81.1592 48.5273V70.7695H74.4697V28.125H80.7402V36.4102C81.793 33.7547 83.3533 31.6616 85.4229 30.1318C87.987 28.2366 90.9416 27.2891 94.2861 27.2891ZM177.065 27.2891C181.525 27.2891 185.093 28.5706 187.769 31.1348C190.5 33.6432 191.865 36.9601 191.865 41.085V70.7695H185.177V42.8418C185.177 39.6087 184.368 37.183 182.752 35.5664C181.135 33.9498 178.738 33.1416 175.561 33.1416C172.773 33.1416 170.292 33.7551 168.118 34.9814C166 36.2078 164.328 37.9081 163.102 40.082C161.931 42.2561 161.346 44.7927 161.346 47.6914V70.7695H154.656V28.125H160.928V36.2539C162.354 33.6942 164.332 31.6246 166.864 30.0479C169.874 28.2083 173.275 27.2891 177.065 27.2891ZM322.436 27.2891C323.829 27.2891 324.777 27.4002 325.278 27.623V34.0615C325 33.9502 324.61 33.8946 324.108 33.8945C323.607 33.8388 322.993 33.8105 322.269 33.8105C318.032 33.8105 314.799 35.0931 312.569 37.6572C310.395 40.1657 309.308 43.7891 309.308 48.5273V70.7695H302.618V28.125H308.89V36.4082C309.942 33.7535 311.503 31.6613 313.572 30.1318C316.136 28.2366 319.091 27.2891 322.436 27.2891ZM599.365 32.1182C599.873 31.102 600.491 30.0855 601.217 29.0693C604.701 24.5694 609.383 22.3193 615.262 22.3193C617.149 22.3194 618.891 22.6098 620.487 23.1904C626.947 25.3679 630.178 30.9934 630.178 40.0664V67.9385H633.771C634.206 67.9385 634.642 67.9743 635.077 68.0469C636.021 68.1921 636.492 69.1002 636.492 70.7695H612.104V67.9385C613.338 67.9384 614.318 67.7574 615.044 67.3945C615.915 66.8865 616.351 65.1804 616.351 62.2773V38.2158C616.351 37.4901 616.314 36.8365 616.241 36.2559C615.733 30.8121 613.265 28.0899 608.838 28.0898C607.677 28.0898 606.479 28.4162 605.245 29.0693C601.326 31.1743 599.365 35.4212 599.365 41.8086V67.9385H602.088C602.523 67.9385 602.922 67.9743 603.285 68.0469C604.229 68.192 604.7 69.1001 604.7 70.7695H579.115V67.9385C579.623 67.9385 580.131 67.9016 580.639 67.8291C583.905 67.5388 585.538 65.6885 585.538 62.2773V2.83105H579.115V0H599.365V32.1182ZM727.295 23.082C728.238 23.0821 729.146 23.1905 730.017 23.4082C733.573 24.3518 735.352 26.6384 735.352 30.2676C735.352 31.2837 735.134 32.2635 734.698 33.207C733.464 35.9652 731.396 37.3447 728.492 37.3447C727.621 37.3447 726.822 37.2353 726.097 37.0176C724.573 36.4368 723.157 34.9855 721.851 32.6631C720.907 30.9939 720.037 30.1585 719.238 30.1582C718.803 30.1582 718.33 30.2676 717.822 30.4854C714.629 32.1549 712.778 36.8 712.27 44.4209V67.9385H720.326C720.762 67.9385 721.161 67.9743 721.524 68.0469C722.468 68.1921 722.939 69.1002 722.939 70.7695H692.128V67.9385C693.071 67.9385 693.906 67.8658 694.632 67.7207C697.172 67.2852 698.442 65.4708 698.442 62.2773V26.7832H692.128V23.9531H711.181L711.943 34.0781C712.742 32.046 713.903 30.1589 715.427 28.417C718.838 24.8604 722.795 23.082 727.295 23.082ZM402.301 25.1504C399.543 25.1504 397.401 25.9849 395.877 27.6543C393.409 30.4851 392.176 36.9818 392.176 47.1436C392.176 53.9662 392.61 58.9385 393.481 62.0596C394.788 66.7048 397.692 69.0273 402.192 69.0273C404.732 69.0273 406.801 68.2651 408.397 66.7412C411.156 63.9831 412.535 57.3051 412.535 46.708C412.535 40.1031 412.099 35.2761 411.229 32.2275C409.922 27.5096 406.946 25.1504 402.301 25.1504ZM123.553 32.9746C119.316 32.9746 115.888 34.4518 113.268 37.4062C110.648 40.3607 109.338 44.2909 109.338 49.1963C109.338 52.4852 109.923 55.3841 111.094 57.8926C112.264 60.401 113.909 62.3798 116.027 63.8291C118.201 65.2227 120.71 65.9199 123.553 65.9199C126.451 65.9199 128.96 65.2227 131.078 63.8291C133.196 62.3798 134.841 60.401 136.012 57.8926C137.182 55.3841 137.768 52.4852 137.768 49.1963C137.768 44.2909 136.458 40.3607 133.838 37.4062C131.274 34.4518 127.845 32.9746 123.553 32.9746ZM222.021 33.1416C217.784 33.1417 214.439 34.5633 211.986 37.4062C209.59 40.2492 208.392 44.1513 208.392 49.1123C208.392 53.9621 209.618 57.8366 212.07 60.7354C214.523 63.5782 217.84 64.9999 222.021 65C226.201 65 229.518 63.55 231.971 60.6514C234.423 57.7527 235.65 53.8226 235.65 48.8613C235.65 44.0117 234.423 40.1934 231.971 37.4062C229.518 34.5634 226.201 33.1416 222.021 33.1416ZM456.739 25.1504C454.489 25.1504 452.783 25.8038 451.622 27.1104C450.025 28.9976 449.227 33.534 449.227 40.7197C449.227 45.7279 449.48 49.2121 449.988 51.1719C450.859 54.5105 453.073 56.1796 456.63 56.1797C458.807 56.1797 460.513 55.5629 461.747 54.3291C463.489 52.3693 464.36 47.7235 464.36 40.3926C464.36 35.6022 464.107 32.1905 463.599 30.1582C462.655 26.8196 460.368 25.1505 456.739 25.1504ZM273.063 32.9746C268.827 32.9747 265.399 34.452 262.779 37.4062C260.821 39.6199 259.611 42.4351 259.148 45.8516H285.867C285.486 42.208 284.398 39.3088 282.596 37.1553C280.366 34.3682 277.188 32.9746 273.063 32.9746ZM513.463 25.1504C507.656 25.3682 504.499 31.5013 503.991 43.5498L510.959 43.877C513.862 44.0221 516.04 43.841 517.491 43.333C519.524 42.5346 520.54 40.429 520.54 37.0176C520.467 29.2512 518.108 25.2956 513.463 25.1504ZM665.78 25.1504C659.974 25.3681 656.816 31.5012 656.308 43.5498L663.275 43.877C666.179 44.0221 668.357 43.8411 669.809 43.333C671.841 42.5345 672.856 40.4289 672.856 37.0176C672.784 29.2515 670.425 25.2958 665.78 25.1504Z" fill="url(#paint0_linear_148_505)"/>
<defs>
<linearGradient id="paint0_linear_148_505" x1="7.80159" y1="58.8626" x2="411.284" y2="-317.815" gradientUnits="userSpaceOnUse">
<stop stop-color="white"/>
<stop offset="1" stop-color="#A6E5FF"/>
</linearGradient>
</defs>
</svg>
